<?xml version="1.0" standalone="no"?>
<!DOCTYPE svg PUBLIC "-//W3C//DTD SVG 20010904//EN"
 "http://www.w3.org/TR/2001/REC-SVG-20010904/DTD/svg10.dtd">
<svg version="1.0" xmlns="http://www.w3.org/2000/svg"
 width="1280.000000pt" height="1026.000000pt" viewBox="0 0 1280.000000 1026.000000"
 preserveAspectRatio="xMidYMid meet">
<metadata>
Created by potrace 1.15, written by Peter Selinger 2001-2017
</metadata>
<g transform="translate(0.000000,1026.000000) scale(0.100000,-0.100000)"
fill="#000000" stroke="none">
<path d="M5230 10251 c-54 -17 -109 -53 -190 -126 -99 -88 -148 -115 -213
-115 -67 0 -118 24 -161 76 -45 53 -129 104 -174 104 -46 0 -113 -37 -217
-119 -50 -40 -119 -86 -155 -104 -58 -29 -74 -32 -150 -32 -66 0 -96 5 -134
23 -71 32 -174 31 -244 -4 -70 -35 -104 -90 -154 -250 l-41 -132 -38 -12 c-27
-9 -74 -11 -156 -7 -70 3 -135 2 -160 -5 -97 -24 -173 -134 -174 -255 0 -96
-13 -161 -35 -183 -13 -13 -56 -25 -139 -40 -173 -30 -203 -42 -280 -112 -111
-102 -124 -145 -101 -335 9 -71 13 -144 10 -161 -16 -77 -418 -346 -518 -345
-17 0 -64 12 -105 27 -179 67 -330 15 -440 -149 -44 -66 -111 -214 -111 -247
0 -7 -36 -28 -79 -46 -43 -18 -97 -48 -118 -67 -36 -30 -41 -40 -46 -90 -6
-64 -46 -158 -85 -199 -34 -36 -97 -65 -141 -66 l-34 0 7 93 c15 218 19 513 7
567 -27 128 -71 175 -161 174 -81 -1 -160 -42 -209 -107 -143 -196 -243 -451
-277 -712 -34 -251 4 -546 101 -805 21 -56 25 -85 28 -205 4 -198 22 -235 164
-341 75 -56 129 -119 140 -163 18 -78 93 -173 158 -202 22 -10 75 -22 118 -28
98 -14 130 -30 162 -84 20 -35 25 -57 25 -108 0 -117 29 -399 55 -523 57 -285
169 -527 365 -792 l68 -91 11 -136 c25 -294 110 -503 262 -641 131 -118 276
-168 489 -170 137 0 216 10 350 46 41 11 76 16 77 12 30 -88 150 -153 284
-154 l46 0 5 -98 c4 -66 14 -121 32 -174 24 -72 25 -79 11 -130 -31 -120 -109
-317 -186 -470 -17 -35 -93 -146 -169 -248 -170 -228 -234 -329 -370 -585
-172 -326 -193 -382 -194 -515 0 -58 4 -104 12 -117 16 -28 100 -59 215 -79
74 -13 136 -15 312 -11 271 7 478 37 663 98 73 24 69 16 75 184 3 66 10 132
16 147 5 15 57 90 114 165 249 331 395 568 486 794 l23 55 82 0 c58 0 99 7
146 23 48 17 78 22 113 17 62 -7 152 -56 223 -120 68 -62 79 -30 -96 -291
-162 -243 -216 -340 -340 -608 -131 -285 -152 -346 -158 -468 -6 -131 5 -161
66 -187 74 -32 153 -42 323 -42 162 0 304 15 489 51 113 23 315 81 360 104
l28 15 4 153 3 153 114 174 c210 320 307 493 392 695 l38 90 103 6 c189 10
241 56 322 282 22 59 65 103 117 119 35 10 53 8 132 -12 58 -14 133 -25 202
-27 100 -4 114 -2 155 19 56 29 84 76 105 178 24 112 43 156 80 189 48 42 100
47 200 21 208 -54 508 -75 965 -67 179 3 365 11 413 17 49 6 91 10 93 7 9 -9
-37 -193 -81 -325 -24 -73 -73 -194 -108 -270 -55 -119 -83 -164 -202 -323
-181 -240 -223 -307 -377 -594 -155 -292 -188 -376 -195 -500 -6 -110 3 -138
56 -165 195 -99 743 -81 1127 37 95 29 94 26 94 177 1 145 5 156 148 348 361
486 494 753 617 1237 23 93 25 116 25 345 0 135 4 247 8 250 15 9 120 -41 185
-87 171 -122 288 -340 343 -639 21 -112 29 -408 15 -533 -10 -93 -92 -401
-137 -517 -23 -56 -75 -142 -152 -248 -110 -152 -171 -292 -186 -430 -5 -42
-3 -46 29 -68 53 -34 174 -71 292 -88 132 -20 463 -22 643 -5 272 27 365 65
413 170 24 55 26 174 7 398 -16 181 -11 236 55 628 63 371 77 491 78 655 0
225 -11 275 -108 470 -173 346 -209 457 -208 645 0 216 38 368 184 738 259
657 333 954 355 1432 6 124 9 145 23 143 20 -4 43 -69 91 -253 92 -359 120
-668 120 -1339 l0 -418 -85 -133 c-250 -392 -320 -660 -236 -900 13 -37 32
-65 62 -92 101 -88 99 -86 99 -155 0 -49 -10 -94 -45 -196 -75 -220 -80 -329
-21 -457 20 -44 36 -60 97 -102 126 -84 160 -155 179 -373 19 -221 45 -287
152 -396 55 -56 74 -84 92 -135 13 -35 29 -65 35 -67 6 -2 43 28 81 67 89 90
151 215 216 436 75 256 98 375 120 637 5 59 13 80 81 200 157 275 189 367 180
506 -7 98 -34 198 -88 327 -38 93 -39 97 -39 222 -1 319 -31 371 -325 568
-164 111 -164 110 -210 281 -58 212 -66 309 -75 944 -9 612 -10 628 -65 985
-69 440 -188 714 -410 944 -138 143 -311 273 -530 399 -237 136 -561 475 -811
847 -216 321 -474 774 -474 833 0 17 16 86 36 154 20 68 44 153 52 190 15 66
15 66 -11 111 -36 62 -73 77 -186 77 -170 0 -246 35 -308 140 -69 118 -80 133
-126 167 -66 48 -131 71 -254 88 -119 17 -157 31 -196 70 -41 41 -63 82 -86
160 -26 84 -49 119 -107 163 -52 40 -118 62 -188 62 -28 0 -125 -18 -216 -40
-172 -42 -220 -47 -266 -30 -14 6 -68 50 -119 98 -125 118 -182 146 -295 146
-72 0 -101 -6 -193 -38 -103 -35 -111 -37 -163 -26 -30 7 -110 39 -177 73
-117 60 -125 62 -197 62 -92 0 -151 -27 -255 -116 -69 -60 -70 -60 -121 -55
-78 9 -108 23 -202 97 -132 105 -202 119 -367 73 -185 -53 -236 -45 -377 58
-79 58 -156 99 -181 97 -7 0 -23 -4 -37 -8z"/>
</g>
</svg>
